<svg width="79" height="20" viewBox="0 0 79 20" fill="none" xmlns="http://www.w3.org/2000/svg">
<path d="M18.9622 19H14.8743L13.2493 14.7725H5.80988L4.27375 19H0.287422L7.53645 0.388672H11.5101L18.9622 19ZM12.0433 11.6367L9.47883 4.73047L6.96516 11.6367H12.0433ZM19.3827 3.68945V0.388672H22.9501V3.68945H19.3827ZM19.3827 19V5.51758H22.9501V19H19.3827ZM28.4741 19H24.9067V5.51758H28.2202V7.43457C28.7872 6.52897 29.295 5.93229 29.7436 5.64453C30.2006 5.35677 30.7169 5.21289 31.2924 5.21289C32.1049 5.21289 32.8878 5.43717 33.6411 5.88574L32.5366 8.99609C31.9357 8.60677 31.3771 8.41211 30.8608 8.41211C30.3614 8.41211 29.9383 8.55176 29.5913 8.83105C29.2442 9.10189 28.9692 9.59701 28.7661 10.3164C28.5714 11.0358 28.4741 12.5423 28.4741 14.8359V19ZM51.2398 12.1572L54.8834 13.3125C54.3248 15.3438 53.3938 16.8545 52.0904 17.8447C50.7955 18.8265 49.1493 19.3174 47.1519 19.3174C44.6806 19.3174 42.6493 18.4753 41.0582 16.791C39.467 15.0983 38.6714 12.7878 38.6714 9.85938C38.6714 6.76172 39.4713 4.35807 41.0709 2.64844C42.6705 0.930339 44.7737 0.0712891 47.3804 0.0712891C49.6571 0.0712891 51.5064 0.744141 52.9283 2.08984C53.7746 2.88542 54.4094 4.02799 54.8326 5.51758L51.1129 6.40625C50.8928 5.44141 50.4315 4.67969 49.7291 4.12109C49.0351 3.5625 48.1887 3.2832 47.19 3.2832C45.8104 3.2832 44.689 3.77832 43.8257 4.76855C42.9709 5.75879 42.5435 7.36263 42.5435 9.58008C42.5435 11.9329 42.9667 13.6087 43.813 14.6074C44.6594 15.6061 45.7597 16.1055 47.1138 16.1055C48.1125 16.1055 48.9716 15.7881 49.691 15.1533C50.4104 14.5186 50.9267 13.5199 51.2398 12.1572ZM59.2013 9.63086L55.964 9.04688C56.3279 7.74349 56.9542 6.77865 57.8429 6.15234C58.7316 5.52604 60.0519 5.21289 61.8038 5.21289C63.395 5.21289 64.5799 5.40332 65.3585 5.78418C66.1372 6.15658 66.6831 6.63477 66.9962 7.21875C67.3178 7.79427 67.4786 8.85645 67.4786 10.4053L67.4405 14.5693C67.4405 15.7542 67.4956 16.6302 67.6056 17.1973C67.7241 17.7559 67.9399 18.3568 68.253 19H64.7238C64.6307 18.763 64.5164 18.4118 64.381 17.9463C64.3217 17.7347 64.2794 17.5951 64.254 17.5273C63.6446 18.1198 62.993 18.5641 62.2989 18.8604C61.6049 19.1566 60.8644 19.3047 60.0773 19.3047C58.6892 19.3047 57.5932 18.9281 56.7892 18.1748C55.9936 17.4215 55.5958 16.4694 55.5958 15.3184C55.5958 14.5566 55.7778 13.8796 56.1417 13.2871C56.5057 12.6862 57.0135 12.2292 57.6652 11.916C58.3253 11.5944 59.2732 11.3151 60.5089 11.0781C62.1762 10.765 63.3315 10.473 63.9747 10.2021V9.84668C63.9747 9.16113 63.8055 8.67448 63.4669 8.38672C63.1284 8.09049 62.4894 7.94238 61.5499 7.94238C60.9152 7.94238 60.42 8.06934 60.0646 8.32324C59.7091 8.56868 59.4213 9.00456 59.2013 9.63086ZM63.9747 12.5254C63.5177 12.6777 62.7941 12.8597 61.8038 13.0713C60.8136 13.2829 60.1661 13.4902 59.8614 13.6934C59.396 14.0234 59.1632 14.4424 59.1632 14.9502C59.1632 15.4495 59.3494 15.8812 59.7218 16.2451C60.0942 16.609 60.5682 16.791 61.1437 16.791C61.7869 16.791 62.4005 16.5794 62.9845 16.1562C63.4161 15.8346 63.6997 15.4411 63.8351 14.9756C63.9282 14.6709 63.9747 14.0911 63.9747 13.2363V12.5254ZM72.863 19H69.2956V5.51758H72.6091V7.43457C73.1761 6.52897 73.6839 5.93229 74.1325 5.64453C74.5895 5.35677 75.1058 5.21289 75.6813 5.21289C76.4938 5.21289 77.2767 5.43717 78.03 5.88574L76.9255 8.99609C76.3246 8.60677 75.766 8.41211 75.2497 8.41211C74.7503 8.41211 74.3272 8.55176 73.9802 8.83105C73.6332 9.10189 73.3581 9.59701 73.155 10.3164C72.9603 11.0358 72.863 12.5423 72.863 14.8359V19Z" fill="#171717"/>
</svg>
