<svg width="44" height="44" viewBox="0 0 44 44" fill="none" xmlns="http://www.w3.org/2000/svg">
<g id="car-fill">
<path id="Vector" d="M34.8334 36.6667H9.16669V38.5C9.16669 39.5126 8.34587 40.3333 7.33335 40.3333H5.50002C4.48751 40.3333 3.66669 39.5126 3.66669 38.5V22L8.27448 9.71255C8.81115 8.28145 10.1793 7.33334 11.7077 7.33334H32.2924C33.8208 7.33334 35.1888 8.28145 35.7256 9.71255L40.3334 22V38.5C40.3334 39.5126 39.5126 40.3333 38.5 40.3333H36.6667C35.6541 40.3333 34.8334 39.5126 34.8334 38.5V36.6667ZM7.58269 22H36.4174L32.2924 11H11.7077L7.58269 22ZM11.9167 31.1667C13.4355 31.1667 14.6667 29.9354 14.6667 28.4167C14.6667 26.8979 13.4355 25.6667 11.9167 25.6667C10.3979 25.6667 9.16669 26.8979 9.16669 28.4167C9.16669 29.9354 10.3979 31.1667 11.9167 31.1667ZM32.0834 31.1667C33.6021 31.1667 34.8334 29.9354 34.8334 28.4167C34.8334 26.8979 33.6021 25.6667 32.0834 25.6667C30.5646 25.6667 29.3334 26.8979 29.3334 28.4167C29.3334 29.9354 30.5646 31.1667 32.0834 31.1667Z" fill="#404040"/>
</g>
</svg>
