<svg width="116" height="20" viewBox="0 0 116 20" fill="none" xmlns="http://www.w3.org/2000/svg">
<path d="M7.74718 0.592C11.0752 0.592 13.5365 1.372 15.1312 2.932C16.7432 4.47467 17.5492 6.69333 17.5492 9.588C17.5492 11.4773 17.1505 13.1327 16.3532 14.554C15.5732 15.958 14.4378 17.05 12.9472 17.83C11.4565 18.61 9.64518 19 7.51318 19C7.25318 19 6.89785 18.9913 6.44718 18.974C6.01385 18.9567 5.55451 18.948 5.06918 18.948C4.60118 18.9307 4.16785 18.922 3.76918 18.922C3.05851 18.922 2.36518 18.9307 1.68918 18.948C1.01318 18.948 0.458513 18.9653 0.02518 19V18.48C0.59718 18.4453 1.02185 18.376 1.29918 18.272C1.59385 18.168 1.78451 17.96 1.87118 17.648C1.97518 17.336 2.02718 16.868 2.02718 16.244V3.348C2.02718 2.70667 1.97518 2.23867 1.87118 1.944C1.78451 1.632 1.59385 1.424 1.29918 1.32C1.02185 1.19867 0.59718 1.12933 0.02518 1.112V0.592C0.458513 0.609333 1.01318 0.635333 1.68918 0.669999C2.36518 0.687332 3.04118 0.687332 3.71718 0.669999C4.34118 0.652666 5.04318 0.635333 5.82318 0.618C6.60318 0.600666 7.24451 0.592 7.74718 0.592ZM7.51318 1.06C6.71585 1.06 6.19585 1.20733 5.95318 1.502C5.71051 1.79667 5.58918 2.39467 5.58918 3.296V16.296C5.58918 17.1973 5.71051 17.7953 5.95318 18.09C6.21318 18.3847 6.74185 18.532 7.53918 18.532C9.15118 18.532 10.4078 18.194 11.3092 17.518C12.2278 16.8247 12.8692 15.8193 13.2332 14.502C13.6145 13.1847 13.8052 11.5813 13.8052 9.692C13.8052 7.75067 13.5972 6.14733 13.1812 4.882C12.7825 3.59933 12.1238 2.646 11.2052 2.022C10.2865 1.38067 9.05585 1.06 7.51318 1.06ZM25.5058 0.592V1.112C24.9511 1.12933 24.5265 1.19867 24.2318 1.32C23.9545 1.424 23.7638 1.632 23.6598 1.944C23.5558 2.23867 23.5038 2.70667 23.5038 3.348V16.244C23.5038 16.868 23.5558 17.336 23.6598 17.648C23.7638 17.96 23.9545 18.168 24.2318 18.272C24.5265 18.376 24.9511 18.4453 25.5058 18.48V19C25.0725 18.9653 24.5178 18.948 23.8418 18.948C23.1658 18.9307 22.4811 18.922 21.7878 18.922C21.0078 18.922 20.2798 18.9307 19.6038 18.948C18.9278 18.948 18.3731 18.9653 17.9398 19V18.48C18.5118 18.4453 18.9365 18.376 19.2138 18.272C19.5085 18.168 19.6991 17.96 19.7858 17.648C19.8898 17.336 19.9418 16.868 19.9418 16.244V3.348C19.9418 2.70667 19.8898 2.23867 19.7858 1.944C19.6991 1.632 19.5085 1.424 19.2138 1.32C18.9365 1.19867 18.5118 1.12933 17.9398 1.112V0.592C18.3731 0.609333 18.9278 0.626666 19.6038 0.643999C20.2798 0.661332 21.0078 0.669999 21.7878 0.669999C22.4811 0.669999 23.1658 0.661332 23.8418 0.643999C24.5178 0.626666 25.0725 0.609333 25.5058 0.592ZM34.0925 0.513999L40.4105 16.816C40.6705 17.44 40.9478 17.8733 41.2425 18.116C41.5545 18.3413 41.8405 18.4627 42.1005 18.48V19C41.6498 18.9653 41.1038 18.948 40.4625 18.948C39.8385 18.9307 39.1972 18.922 38.5385 18.922C37.7758 18.922 37.0652 18.9307 36.4065 18.948C35.7478 18.948 35.2105 18.9653 34.7945 19V18.48C35.6785 18.4453 36.2418 18.298 36.4845 18.038C36.7272 17.7607 36.6752 17.18 36.3285 16.296L31.7525 3.946L32.2205 3.374L28.0605 14.164C27.7312 15.0307 27.5318 15.7413 27.4625 16.296C27.3932 16.8507 27.4365 17.284 27.5925 17.596C27.7485 17.908 28.0085 18.1333 28.3725 18.272C28.7365 18.3933 29.1872 18.4627 29.7245 18.48V19C29.1698 18.9653 28.6325 18.948 28.1125 18.948C27.5925 18.9307 27.0725 18.922 26.5525 18.922C26.1712 18.922 25.8072 18.9307 25.4605 18.948C25.1312 18.948 24.8365 18.9653 24.5765 19V18.48C24.9578 18.3933 25.3305 18.168 25.6945 17.804C26.0758 17.44 26.4398 16.8073 26.7865 15.906L32.7405 0.513999C32.9485 0.531332 33.1738 0.539999 33.4165 0.539999C33.6592 0.539999 33.8845 0.531332 34.0925 0.513999ZM36.3545 11.512V12.032H28.6065L28.8665 11.512H36.3545ZM62.5558 0.592V1.112C62.0011 1.12933 61.5765 1.19867 61.2818 1.32C60.9871 1.424 60.7878 1.632 60.6838 1.944C60.5971 2.23867 60.5538 2.70667 60.5538 3.348V16.244C60.5538 16.868 60.6058 17.336 60.7098 17.648C60.8138 17.96 61.0045 18.168 61.2818 18.272C61.5765 18.376 62.0011 18.4453 62.5558 18.48V19C62.1051 18.9653 61.5331 18.948 60.8398 18.948C60.1465 18.9307 59.4445 18.922 58.7338 18.922C57.9538 18.922 57.2171 18.9307 56.5238 18.948C55.8478 18.948 55.3018 18.9653 54.8858 19V18.48C55.4751 18.4453 55.9171 18.376 56.2118 18.272C56.5238 18.168 56.7318 17.96 56.8358 17.648C56.9398 17.336 56.9918 16.868 56.9918 16.244V2.1L57.1738 2.126L50.7258 19.078H50.3098L43.4458 2.256V15.152C43.4458 15.984 43.4978 16.634 43.6018 17.102C43.7058 17.5527 43.9311 17.882 44.2778 18.09C44.6418 18.2807 45.1878 18.4107 45.9158 18.48V19C45.5865 18.9653 45.1618 18.948 44.6418 18.948C44.1218 18.9307 43.6278 18.922 43.1598 18.922C42.7438 18.922 42.3191 18.9307 41.8858 18.948C41.4698 18.948 41.1231 18.9653 40.8458 19V18.48C41.4178 18.4107 41.8425 18.2807 42.1198 18.09C42.4145 17.8993 42.6051 17.5873 42.6918 17.154C42.7958 16.7207 42.8478 16.1227 42.8478 15.36V3.348C42.8478 2.70667 42.7958 2.23867 42.6918 1.944C42.6051 1.632 42.4145 1.424 42.1198 1.32C41.8425 1.19867 41.4178 1.12933 40.8458 1.112V0.592C41.1231 0.609333 41.4698 0.626666 41.8858 0.643999C42.3191 0.661332 42.7438 0.669999 43.1598 0.669999C43.8011 0.669999 44.4251 0.661332 45.0318 0.643999C45.6385 0.626666 46.1758 0.609333 46.6438 0.592L52.2338 14.554L51.6618 15.022L57.0958 0.669999C57.3558 0.669999 57.6245 0.669999 57.9018 0.669999C58.1965 0.669999 58.4738 0.669999 58.7338 0.669999C59.4445 0.669999 60.1465 0.661332 60.8398 0.643999C61.5331 0.626666 62.1051 0.609333 62.5558 0.592ZM71.8473 0.227998C73.6153 0.227998 75.1667 0.600665 76.5013 1.346C77.836 2.09133 78.8673 3.166 79.5953 4.57C80.3407 5.95667 80.7133 7.64667 80.7133 9.64C80.7133 11.5813 80.332 13.28 79.5693 14.736C78.824 16.192 77.7753 17.3273 76.4233 18.142C75.0887 18.9567 73.5547 19.364 71.8213 19.364C70.0533 19.364 68.502 18.9913 67.1673 18.246C65.8327 17.5007 64.7927 16.426 64.0473 15.022C63.3193 13.618 62.9553 11.928 62.9553 9.952C62.9553 8.01067 63.3367 6.312 64.0993 4.856C64.862 3.4 65.9107 2.26467 67.2453 1.45C68.58 0.635332 70.114 0.227998 71.8473 0.227998ZM71.7433 0.695999C70.7207 0.695999 69.828 1.086 69.0653 1.866C68.32 2.646 67.7393 3.72067 67.3233 5.09C66.9073 6.45933 66.6993 8.04533 66.6993 9.848C66.6993 11.6853 66.9333 13.2887 67.4013 14.658C67.8693 16.01 68.502 17.0587 69.2993 17.804C70.0967 18.532 70.972 18.896 71.9253 18.896C72.948 18.896 73.832 18.506 74.5773 17.726C75.34 16.946 75.9293 15.8713 76.3453 14.502C76.7613 13.1153 76.9693 11.5293 76.9693 9.744C76.9693 7.88933 76.7353 6.286 76.2673 4.934C75.7993 3.582 75.1667 2.542 74.3693 1.814C73.5893 1.06867 72.714 0.695999 71.7433 0.695999ZM97.9664 0.592V1.112C97.4117 1.164 96.987 1.294 96.6924 1.502C96.3977 1.69267 96.1984 2.00467 96.0944 2.438C96.0077 2.854 95.9644 3.452 95.9644 4.232V19.078C95.8084 19.0607 95.635 19.052 95.4444 19.052C95.271 19.052 95.0804 19.0607 94.8724 19.078L83.7184 3.92V15.152C83.7184 15.984 83.7704 16.634 83.8744 17.102C83.9784 17.5527 84.2037 17.882 84.5504 18.09C84.9144 18.2807 85.4604 18.4107 86.1884 18.48V19C85.859 18.9653 85.4344 18.948 84.9144 18.948C84.3944 18.9307 83.9004 18.922 83.4324 18.922C83.0164 18.922 82.5917 18.9307 82.1584 18.948C81.7424 18.948 81.3957 18.9653 81.1184 19V18.48C81.6904 18.4107 82.115 18.2807 82.3924 18.09C82.687 17.8993 82.8777 17.5873 82.9644 17.154C83.0684 16.7207 83.1204 16.1227 83.1204 15.36V3.348C83.1204 2.70667 83.0684 2.23867 82.9644 1.944C82.8777 1.632 82.687 1.424 82.3924 1.32C82.115 1.19867 81.6904 1.12933 81.1184 1.112V0.592C81.3957 0.609333 81.7424 0.626666 82.1584 0.643999C82.5917 0.661332 83.0164 0.669999 83.4324 0.669999C83.831 0.669999 84.221 0.661332 84.6024 0.643999C84.9837 0.626666 85.3217 0.609333 85.6164 0.592L95.3664 13.566V4.44C95.3664 3.59067 95.3144 2.94067 95.2104 2.49C95.1064 2.03933 94.881 1.71 94.5344 1.502C94.1877 1.294 93.6417 1.164 92.8964 1.112V0.592C93.2257 0.609333 93.6504 0.626666 94.1704 0.643999C94.7077 0.661332 95.2017 0.669999 95.6524 0.669999C96.0857 0.669999 96.5104 0.661332 96.9264 0.643999C97.3597 0.626666 97.7064 0.609333 97.9664 0.592ZM105.866 0.592C109.194 0.592 111.655 1.372 113.25 2.932C114.862 4.47467 115.668 6.69333 115.668 9.588C115.668 11.4773 115.269 13.1327 114.472 14.554C113.692 15.958 112.556 17.05 111.066 17.83C109.575 18.61 107.764 19 105.632 19C105.372 19 105.016 18.9913 104.566 18.974C104.132 18.9567 103.673 18.948 103.188 18.948C102.72 18.9307 102.286 18.922 101.888 18.922C101.177 18.922 100.484 18.9307 99.8077 18.948C99.1317 18.948 98.577 18.9653 98.1437 19V18.48C98.7157 18.4453 99.1404 18.376 99.4177 18.272C99.7124 18.168 99.903 17.96 99.9897 17.648C100.094 17.336 100.146 16.868 100.146 16.244V3.348C100.146 2.70667 100.094 2.23867 99.9897 1.944C99.903 1.632 99.7124 1.424 99.4177 1.32C99.1404 1.19867 98.7157 1.12933 98.1437 1.112V0.592C98.577 0.609333 99.1317 0.635333 99.8077 0.669999C100.484 0.687332 101.16 0.687332 101.836 0.669999C102.46 0.652666 103.162 0.635333 103.942 0.618C104.722 0.600666 105.363 0.592 105.866 0.592ZM105.632 1.06C104.834 1.06 104.314 1.20733 104.072 1.502C103.829 1.79667 103.708 2.39467 103.708 3.296V16.296C103.708 17.1973 103.829 17.7953 104.072 18.09C104.332 18.3847 104.86 18.532 105.658 18.532C107.27 18.532 108.526 18.194 109.428 17.518C110.346 16.8247 110.988 15.8193 111.352 14.502C111.733 13.1847 111.924 11.5813 111.924 9.692C111.924 7.75067 111.716 6.14733 111.3 4.882C110.901 3.59933 110.242 2.646 109.324 2.022C108.405 1.38067 107.174 1.06 105.632 1.06Z" fill="#171717"/>
</svg>
