<svg width="155" height="35" viewBox="0 0 155 35" fill="none" xmlns="http://www.w3.org/2000/svg">
<path d="M0.62719 34V1.34375H6.8059L11.4446 25.2051L15.8049 1.34375H22.0207V34H17.5862V21.8281L17.7717 10.6582L13.3743 33.8516H9.42211L4.8391 10.6582L5.02465 21.8281V34H0.62719ZM22.728 34L27.3853 1.34375H33.9536L38.9077 34H34.2691L33.4898 28.1738H28.2202L27.5152 34H22.728ZM28.7027 24.1846H32.9702L30.7808 7.78223H30.7066L28.7027 24.1846ZM39.5965 34V1.34375H44.5691V16.373L49.5418 1.34375H54.6814L49.2635 17.4492L55.1082 34H49.8572L44.6063 18.748V34H39.5965ZM55.5372 34V1.34375H63.7569C65.4639 1.34375 66.738 1.67773 67.5792 2.3457C68.4203 3.01367 68.9708 3.99089 69.2305 5.27734C69.5027 6.5638 69.6388 8.13477 69.6388 9.99023C69.6388 11.9076 69.4408 13.4167 69.045 14.5176C68.6615 15.6061 67.8699 16.3359 66.67 16.707C67.239 16.806 67.7152 17.041 68.0987 17.4121C68.4822 17.7708 68.7914 18.3027 69.0264 19.0078C69.2615 19.7005 69.4285 20.5973 69.5274 21.6982C69.6388 22.7868 69.6944 24.1227 69.6944 25.7061C69.6944 25.8298 69.6944 26.1761 69.6944 26.7451C69.6944 27.3141 69.6944 27.9883 69.6944 28.7676C69.7068 29.5345 69.7192 30.3014 69.7315 31.0684C69.7439 31.8353 69.7624 32.4909 69.7872 33.0352C69.8119 33.5794 69.8429 33.901 69.88 34H64.9073C64.8702 33.9382 64.8393 33.6227 64.8145 33.0537C64.8022 32.4723 64.7836 31.7363 64.7589 30.8457C64.7465 29.9551 64.7341 28.9964 64.7218 27.9697C64.7218 26.943 64.7218 25.9349 64.7218 24.9453C64.7218 23.9434 64.7218 23.0589 64.7218 22.292C64.7218 21.3148 64.6475 20.5788 64.4991 20.084C64.363 19.5768 64.1033 19.2243 63.7198 19.0264C63.3487 18.8285 62.8106 18.7109 62.1055 18.6738L60.5098 18.5811V34H55.5372ZM60.5284 14.7217H62.5138C63.1199 14.7217 63.5776 14.5856 63.8868 14.3135C64.2084 14.0413 64.4249 13.5404 64.5362 12.8105C64.6599 12.0807 64.7218 11.0293 64.7218 9.65625V9.45215C64.7218 8.30176 64.6661 7.41732 64.5548 6.79883C64.4434 6.18034 64.2084 5.75358 63.8497 5.51855C63.5033 5.28353 62.9591 5.16602 62.2169 5.16602H60.5284V14.7217ZM78.5287 34.3711C76.834 34.3711 75.4486 34.0124 74.3724 33.2949C73.3086 32.5775 72.5231 31.5137 72.016 30.1035C71.5088 28.6934 71.2552 26.9492 71.2552 24.8711V9.93457C71.2552 8.05436 71.5026 6.44629 71.9974 5.11035C72.4922 3.77441 73.2777 2.74772 74.3539 2.03027C75.43 1.31283 76.8402 0.954102 78.5843 0.954102C79.8955 0.954102 81.0026 1.1582 81.9056 1.56641C82.8086 1.97461 83.5384 2.56836 84.0951 3.34766C84.6517 4.11458 85.0537 5.05469 85.3011 6.16797C85.5609 7.26888 85.6908 8.52441 85.6908 9.93457V24.8711C85.6908 26.9492 85.4434 28.6934 84.9486 30.1035C84.4662 31.5137 83.6992 32.5775 82.6478 33.2949C81.5964 34.0124 80.2233 34.3711 78.5287 34.3711ZM78.5287 30.0664C79.1472 30.0664 79.611 29.8809 79.9203 29.5098C80.2295 29.1387 80.4336 28.5758 80.5326 27.8213C80.6439 27.0544 80.6996 26.0895 80.6996 24.9268V9.71191C80.6996 8.28939 80.5635 7.19466 80.2914 6.42773C80.0316 5.64844 79.4626 5.25879 78.5843 5.25879C77.6813 5.25879 77.069 5.63607 76.7474 6.39062C76.4258 7.13281 76.265 8.23372 76.265 9.69336V24.9268C76.265 26.1143 76.3145 27.0915 76.4134 27.8584C76.5248 28.613 76.7412 29.1696 77.0629 29.5283C77.3968 29.887 77.8854 30.0664 78.5287 30.0664ZM92.4863 34V1.34375H97.4589V14.5547H101.912V1.34375H106.885V34H101.912V18.8223H97.4589V34H92.4863ZM107.573 34L112.231 1.34375H118.799L123.753 34H119.114L118.335 28.1738H113.066L112.361 34H107.573ZM113.548 24.1846H117.816L115.626 7.78223H115.552L113.548 24.1846ZM124.442 34V1.34375H132.662C134.369 1.34375 135.643 1.67773 136.484 2.3457C137.325 3.01367 137.875 3.99089 138.135 5.27734C138.407 6.5638 138.543 8.13477 138.543 9.99023C138.543 11.9076 138.346 13.4167 137.95 14.5176C137.566 15.6061 136.775 16.3359 135.575 16.707C136.144 16.806 136.62 17.041 137.003 17.4121C137.387 17.7708 137.696 18.3027 137.931 19.0078C138.166 19.7005 138.333 20.5973 138.432 21.6982C138.543 22.7868 138.599 24.1227 138.599 25.7061C138.599 25.8298 138.599 26.1761 138.599 26.7451C138.599 27.3141 138.599 27.9883 138.599 28.7676C138.611 29.5345 138.624 30.3014 138.636 31.0684C138.649 31.8353 138.667 32.4909 138.692 33.0352C138.717 33.5794 138.748 33.901 138.785 34H133.812C133.775 33.9382 133.744 33.6227 133.719 33.0537C133.707 32.4723 133.688 31.7363 133.664 30.8457C133.651 29.9551 133.639 28.9964 133.626 27.9697C133.626 26.943 133.626 25.9349 133.626 24.9453C133.626 23.9434 133.626 23.0589 133.626 22.292C133.626 21.3148 133.552 20.5788 133.404 20.084C133.268 19.5768 133.008 19.2243 132.624 19.0264C132.253 18.8285 131.715 18.7109 131.01 18.6738L129.415 18.5811V34H124.442ZM129.433 14.7217H131.418C132.025 14.7217 132.482 14.5856 132.791 14.3135C133.113 14.0413 133.33 13.5404 133.441 12.8105C133.565 12.0807 133.626 11.0293 133.626 9.65625V9.45215C133.626 8.30176 133.571 7.41732 133.459 6.79883C133.348 6.18034 133.113 5.75358 132.754 5.51855C132.408 5.28353 131.864 5.16602 131.122 5.16602H129.433V14.7217ZM140.568 34V1.34375H147.897C149.555 1.34375 150.885 1.67773 151.886 2.3457C152.888 3.0013 153.612 3.95378 154.057 5.20312C154.515 6.45247 154.744 7.96159 154.744 9.73047L154.762 24.4629C154.762 26.6029 154.527 28.3841 154.057 29.8066C153.6 31.2168 152.858 32.2682 151.831 32.9609C150.804 33.6536 149.437 34 147.73 34H140.568ZM145.541 30.1406H147.174C147.755 30.1406 148.237 30.0231 148.621 29.7881C149.017 29.5531 149.307 29.1387 149.493 28.5449C149.691 27.9388 149.79 27.0853 149.79 25.9844L149.771 9.86035C149.771 8.19043 149.567 6.99056 149.159 6.26074C148.751 5.53092 148.033 5.16602 147.007 5.16602H145.541V30.1406Z" fill="#171717"/>
</svg>
