<svg width="119" height="20" viewBox="0 0 119 20" fill="none" xmlns="http://www.w3.org/2000/svg">
<path d="M0.894235 19V1.54545H7.7806C9.09878 1.54545 10.2238 1.78125 11.1556 2.25284C12.0931 2.71875 12.8062 3.38068 13.2948 4.23864C13.7891 5.09091 14.0363 6.09375 14.0363 7.24716C14.0363 8.40625 13.7863 9.40341 13.2863 10.2386C12.7863 11.0682 12.0618 11.7045 11.113 12.1477C10.1698 12.5909 9.02776 12.8125 7.68685 12.8125H3.07605V9.84659H7.09026C7.7948 9.84659 8.38003 9.75 8.84594 9.55682C9.31185 9.36364 9.65844 9.07386 9.88571 8.6875C10.1187 8.30114 10.2351 7.82102 10.2351 7.24716C10.2351 6.66761 10.1187 6.17898 9.88571 5.78125C9.65844 5.38352 9.30901 5.08239 8.83742 4.87784C8.37151 4.66761 7.78344 4.5625 7.07321 4.5625H4.58458V19H0.894235ZM10.3204 11.0568L14.6584 19H10.5846L6.34026 11.0568H10.3204ZM20.8399 19.2557C19.516 19.2557 18.3711 18.9744 17.4052 18.4119C16.445 17.8437 15.7035 17.054 15.1808 16.0426C14.6581 15.0256 14.3967 13.8466 14.3967 12.5057C14.3967 11.1534 14.6581 9.97159 15.1808 8.96023C15.7035 7.94318 16.445 7.15341 17.4052 6.59091C18.3711 6.02273 19.516 5.73864 20.8399 5.73864C22.1638 5.73864 23.3058 6.02273 24.266 6.59091C25.2319 7.15341 25.9763 7.94318 26.499 8.96023C27.0217 9.97159 27.2831 11.1534 27.2831 12.5057C27.2831 13.8466 27.0217 15.0256 26.499 16.0426C25.9763 17.054 25.2319 17.8437 24.266 18.4119C23.3058 18.9744 22.1638 19.2557 20.8399 19.2557ZM20.8569 16.4432C21.4592 16.4432 21.962 16.2727 22.3655 15.9318C22.7689 15.5852 23.0728 15.1136 23.2774 14.517C23.4876 13.9205 23.5927 13.2415 23.5927 12.4801C23.5927 11.7188 23.4876 11.0398 23.2774 10.4432C23.0728 9.84659 22.7689 9.375 22.3655 9.02841C21.962 8.68182 21.4592 8.50852 20.8569 8.50852C20.249 8.50852 19.7376 8.68182 19.3228 9.02841C18.9138 9.375 18.6041 9.84659 18.3939 10.4432C18.1893 11.0398 18.087 11.7188 18.087 12.4801C18.087 13.2415 18.1893 13.9205 18.3939 14.517C18.6041 15.1136 18.9138 15.5852 19.3228 15.9318C19.7376 16.2727 20.249 16.4432 20.8569 16.4432ZM28.272 19V1.54545H31.9027V8.10795H32.0135C32.1726 7.75568 32.4027 7.39773 32.7039 7.03409C33.0107 6.66477 33.4084 6.35795 33.897 6.11364C34.3914 5.86364 35.005 5.73864 35.738 5.73864C36.6925 5.73864 37.5732 5.98864 38.38 6.48864C39.1868 6.98295 39.8317 7.73011 40.3147 8.73011C40.7976 9.72443 41.0391 10.9716 41.0391 12.4716C41.0391 13.9318 40.8033 15.1648 40.3317 16.1705C39.8658 17.1705 39.2294 17.929 38.4226 18.446C37.6215 18.9574 36.7238 19.2131 35.7294 19.2131C35.0249 19.2131 34.4255 19.0966 33.9311 18.8636C33.4425 18.6307 33.0419 18.3381 32.7294 17.9858C32.4169 17.6278 32.1783 17.267 32.0135 16.9034H31.8516V19H28.272ZM31.826 12.4545C31.826 13.233 31.934 13.9119 32.1499 14.4915C32.3658 15.071 32.6783 15.5227 33.0874 15.8466C33.4965 16.1648 33.9936 16.3239 34.5789 16.3239C35.1698 16.3239 35.6698 16.1619 36.0789 15.8381C36.488 15.5085 36.7976 15.054 37.0078 14.4744C37.2238 13.8892 37.3317 13.2159 37.3317 12.4545C37.3317 11.6989 37.2266 11.0341 37.0164 10.4602C36.8061 9.88636 36.4965 9.4375 36.0874 9.11364C35.6783 8.78977 35.1755 8.62784 34.5789 8.62784C33.988 8.62784 33.488 8.78409 33.0789 9.09659C32.6755 9.40909 32.3658 9.85227 32.1499 10.4261C31.934 11 31.826 11.6761 31.826 12.4545ZM42.0217 19V5.90909H45.6524V19H42.0217ZM43.8455 4.22159C43.3058 4.22159 42.8427 4.04261 42.4563 3.68466C42.0757 3.32102 41.8853 2.88636 41.8853 2.38068C41.8853 1.88068 42.0757 1.4517 42.4563 1.09375C42.8427 0.730113 43.3058 0.548295 43.8455 0.548295C44.3853 0.548295 44.8455 0.730113 45.2262 1.09375C45.6126 1.4517 45.8058 1.88068 45.8058 2.38068C45.8058 2.88636 45.6126 3.32102 45.2262 3.68466C44.8455 4.04261 44.3853 4.22159 43.8455 4.22159ZM50.7514 11.4318V19H47.1207V5.90909H50.581V8.21875H50.7344C51.0241 7.45739 51.5099 6.85511 52.1918 6.41193C52.8736 5.96307 53.7003 5.73864 54.6719 5.73864C55.581 5.73864 56.3736 5.9375 57.0497 6.33523C57.7259 6.73295 58.2514 7.30114 58.6264 8.03977C59.0014 8.77273 59.1889 9.64773 59.1889 10.6648V19H55.5582V11.3125C55.5639 10.5114 55.3594 9.88636 54.9446 9.4375C54.5298 8.98295 53.9588 8.75568 53.2315 8.75568C52.7429 8.75568 52.3111 8.8608 51.9361 9.07102C51.5668 9.28125 51.277 9.58807 51.0668 9.99148C50.8622 10.3892 50.7571 10.8693 50.7514 11.4318ZM63.1928 19L59.6303 5.90909H63.3036L65.332 14.7045H65.4513L67.565 5.90909H71.1701L73.3178 14.6534H73.4286L75.4229 5.90909H79.0877L75.5337 19H71.69L69.44 10.767H69.278L67.028 19H63.1928ZM85.1711 19.2557C83.8473 19.2557 82.7024 18.9744 81.7365 18.4119C80.7763 17.8437 80.0348 17.054 79.512 16.0426C78.9893 15.0256 78.728 13.8466 78.728 12.5057C78.728 11.1534 78.9893 9.97159 79.512 8.96023C80.0348 7.94318 80.7763 7.15341 81.7365 6.59091C82.7024 6.02273 83.8473 5.73864 85.1711 5.73864C86.495 5.73864 87.637 6.02273 88.5973 6.59091C89.5632 7.15341 90.3075 7.94318 90.8302 8.96023C91.353 9.97159 91.6143 11.1534 91.6143 12.5057C91.6143 13.8466 91.353 15.0256 90.8302 16.0426C90.3075 17.054 89.5632 17.8437 88.5973 18.4119C87.637 18.9744 86.495 19.2557 85.1711 19.2557ZM85.1882 16.4432C85.7905 16.4432 86.2933 16.2727 86.6967 15.9318C87.1001 15.5852 87.4041 15.1136 87.6086 14.517C87.8189 13.9205 87.924 13.2415 87.924 12.4801C87.924 11.7188 87.8189 11.0398 87.6086 10.4432C87.4041 9.84659 87.1001 9.375 86.6967 9.02841C86.2933 8.68182 85.7905 8.50852 85.1882 8.50852C84.5802 8.50852 84.0689 8.68182 83.6541 9.02841C83.245 9.375 82.9353 9.84659 82.7251 10.4432C82.5206 11.0398 82.4183 11.7188 82.4183 12.4801C82.4183 13.2415 82.5206 13.9205 82.7251 14.517C82.9353 15.1136 83.245 15.5852 83.6541 15.9318C84.0689 16.2727 84.5802 16.4432 85.1882 16.4432ZM98.4499 19.2557C97.126 19.2557 95.9811 18.9744 95.0152 18.4119C94.055 17.8437 93.3135 17.054 92.7908 16.0426C92.2681 15.0256 92.0067 13.8466 92.0067 12.5057C92.0067 11.1534 92.2681 9.97159 92.7908 8.96023C93.3135 7.94318 94.055 7.15341 95.0152 6.59091C95.9811 6.02273 97.126 5.73864 98.4499 5.73864C99.7738 5.73864 100.916 6.02273 101.876 6.59091C102.842 7.15341 103.586 7.94318 104.109 8.96023C104.632 9.97159 104.893 11.1534 104.893 12.5057C104.893 13.8466 104.632 15.0256 104.109 16.0426C103.586 17.054 102.842 17.8437 101.876 18.4119C100.916 18.9744 99.7738 19.2557 98.4499 19.2557ZM98.4669 16.4432C99.0692 16.4432 99.572 16.2727 99.9755 15.9318C100.379 15.5852 100.683 15.1136 100.887 14.517C101.098 13.9205 101.203 13.2415 101.203 12.4801C101.203 11.7188 101.098 11.0398 100.887 10.4432C100.683 9.84659 100.379 9.375 99.9755 9.02841C99.572 8.68182 99.0692 8.50852 98.4669 8.50852C97.859 8.50852 97.3476 8.68182 96.9328 9.02841C96.5238 9.375 96.2141 9.84659 96.0039 10.4432C95.7993 11.0398 95.697 11.7188 95.697 12.4801C95.697 13.2415 95.7993 13.9205 96.0039 14.517C96.2141 15.1136 96.5238 15.5852 96.9328 15.9318C97.3476 16.2727 97.859 16.4432 98.4669 16.4432ZM110.638 19.2131C109.643 19.2131 108.743 18.9574 107.936 18.446C107.135 17.929 106.499 17.1705 106.027 16.1705C105.561 15.1648 105.328 13.9318 105.328 12.4716C105.328 10.9716 105.57 9.72443 106.052 8.73011C106.535 7.73011 107.177 6.98295 107.979 6.48864C108.785 5.98864 109.669 5.73864 110.629 5.73864C111.362 5.73864 111.973 5.86364 112.462 6.11364C112.956 6.35795 113.354 6.66477 113.655 7.03409C113.962 7.39773 114.195 7.75568 114.354 8.10795H114.464V1.54545H118.087V19H114.507V16.9034H114.354C114.183 17.267 113.942 17.6278 113.629 17.9858C113.322 18.3381 112.922 18.6307 112.427 18.8636C111.939 19.0966 111.342 19.2131 110.638 19.2131ZM111.788 16.3239C112.374 16.3239 112.868 16.1648 113.271 15.8466C113.68 15.5227 113.993 15.071 114.209 14.4915C114.43 13.9119 114.541 13.233 114.541 12.4545C114.541 11.6761 114.433 11 114.217 10.4261C114.001 9.85227 113.689 9.40909 113.28 9.09659C112.871 8.78409 112.374 8.62784 111.788 8.62784C111.192 8.62784 110.689 8.78977 110.28 9.11364C109.871 9.4375 109.561 9.88636 109.351 10.4602C109.141 11.0341 109.035 11.6989 109.035 12.4545C109.035 13.2159 109.141 13.8892 109.351 14.4744C109.567 15.054 109.876 15.5085 110.28 15.8381C110.689 16.1619 111.192 16.3239 111.788 16.3239Z" fill="#171717"/>
</svg>
