<svg width="44" height="44" viewBox="0 0 44 44" fill="none" xmlns="http://www.w3.org/2000/svg">
<g id="sort-number-desc 1">
<path id="Vector" d="M16.5 20.1667L16.501 5.5H13.4072L9.16667 6.63626V10.9056L12.8333 9.91833V20.1667H16.5ZM40.3333 14.6667L33 5.5L25.6667 14.6667H31.1667V38.5H34.8333V14.6667H40.3333ZM14.6667 30.25C13.6542 30.25 12.8333 29.4292 12.8333 28.4167C12.8333 27.4041 13.6542 26.5833 14.6667 26.5833C15.6792 26.5833 16.5 27.4041 16.5 28.4167C16.5 29.4292 15.6792 30.25 14.6667 30.25ZM19.3837 31.2466C19.8809 30.4198 20.1667 29.4516 20.1667 28.4167C20.1667 25.379 17.7042 22.9167 14.6667 22.9167C11.6291 22.9167 9.16667 25.379 9.16667 28.4167C9.16667 31.1108 11.1038 33.3526 13.6612 33.825L10.9621 38.5H15.196L19.3837 31.2466Z" fill="#404040"/>
</g>
</svg>
