<svg width="115" height="19" viewBox="0 0 115 19" fill="none" xmlns="http://www.w3.org/2000/svg">
<path d="M13.313 13.0806C13.313 14.1385 13.0404 15.054 12.4951 15.8271C11.958 16.6003 11.2052 17.1943 10.2368 17.6094C9.26839 18.0163 8.15755 18.2197 6.9043 18.2197C6.55436 18.2197 6.12305 18.1953 5.61035 18.1465C5.10579 18.1058 4.43034 17.9837 3.58398 17.7803C2.74577 17.5768 1.87093 17.2757 0.959473 16.877V12.7266C1.81396 13.2555 2.65218 13.695 3.47412 14.0449C4.3042 14.3949 5.19124 14.5698 6.13525 14.5698C7.00602 14.5698 7.56755 14.4274 7.81982 14.1426C8.08024 13.8496 8.21045 13.577 8.21045 13.3247C8.21045 12.869 7.99072 12.4865 7.55127 12.1772C7.11182 11.8599 6.47298 11.5343 5.63477 11.2007C4.70703 10.8101 3.89323 10.3869 3.19336 9.93115C2.49349 9.46729 1.91976 8.88949 1.47217 8.19775C1.03271 7.50602 0.812988 6.68815 0.812988 5.74414C0.812988 4.83268 1.03678 4.01074 1.48438 3.27832C1.93197 2.53776 2.61556 1.94775 3.53516 1.5083C4.45475 1.06885 5.5778 0.849121 6.9043 0.849121C7.84831 0.849121 8.71908 0.942708 9.5166 1.12988C10.3223 1.30892 10.9855 1.51237 11.5063 1.74023C12.0272 1.9681 12.3853 2.14714 12.5806 2.27734V6.24463C11.8888 5.74821 11.1157 5.30469 10.2612 4.91406C9.41488 4.52344 8.50749 4.32812 7.53906 4.32812C6.9043 4.32812 6.4445 4.4502 6.15967 4.69434C5.87484 4.93848 5.73242 5.23958 5.73242 5.59766C5.73242 5.93132 5.87484 6.22021 6.15967 6.46436C6.4445 6.7085 6.95312 7.00553 7.68555 7.35547C8.98763 7.96582 10.0293 8.51514 10.8105 9.00342C11.5918 9.4917 12.2021 10.0573 12.6416 10.7002C13.0892 11.335 13.313 12.1284 13.313 13.0806ZM42.6968 1.08105L35.3726 18.2197H32.4185L28.0239 8.24658L23.5195 18.2197H20.541L13.3633 1.08105H18.6489L22.1646 10.4561L26.1929 1.08105H29.8428L33.7979 10.4561L37.4722 1.08105H42.6968ZM60.6914 18H55.4668L54.0874 14.5698H46.7388L45.335 18H40.1104L47.5933 1.08105H53.2329L60.6914 18ZM52.9155 11.6279L50.4375 5.45117L47.9351 11.6279H52.9155ZM76.0859 6.40332C76.0859 7.02995 75.9761 7.64437 75.7563 8.24658C75.5448 8.84066 75.1989 9.39811 74.7188 9.91895C74.2386 10.4316 73.5876 10.8507 72.7656 11.1763C71.9518 11.4937 70.9915 11.6523 69.8848 11.6523H66.54V18H61.4375V1.08105H69.8848C70.9915 1.08105 71.9518 1.24382 72.7656 1.56934C73.5876 1.89486 74.2386 2.31803 74.7188 2.83887C75.1989 3.3597 75.5448 3.92529 75.7563 4.53564C75.9761 5.146 76.0859 5.76855 76.0859 6.40332ZM70.8857 6.42773C70.8857 5.62207 70.6457 5.07275 70.1655 4.77979C69.6935 4.47868 68.8431 4.32812 67.6143 4.32812H66.54V8.40527H67.6387C68.485 8.40527 69.1361 8.35238 69.5918 8.24658C70.0475 8.14079 70.3771 7.94548 70.5806 7.66064C70.784 7.37581 70.8857 6.96484 70.8857 6.42773ZM94.813 9.8457C94.813 11.5791 94.4956 12.9707 93.8608 14.0205C93.2342 15.0703 92.4937 15.9207 91.6392 16.5718C90.4266 17.5239 88.7298 18 86.5488 18H77.418V1.08105H84.4492C85.5072 1.08105 86.4105 1.13802 87.1592 1.25195C87.916 1.35775 88.5955 1.51237 89.1978 1.71582C89.8 1.91113 90.3127 2.13493 90.7358 2.38721C91.159 2.63135 91.5374 2.89583 91.8711 3.18066C92.4489 3.65267 92.9535 4.21012 93.3848 4.85303C93.8242 5.49593 94.1701 6.24056 94.4224 7.08691C94.6828 7.93327 94.813 8.85286 94.813 9.8457ZM89.625 9.62598C89.625 8.25065 89.3605 7.1805 88.8315 6.41553C88.3107 5.64242 87.68 5.12565 86.9395 4.86523C86.207 4.60482 85.4583 4.47461 84.6934 4.47461H82.5205V14.4966H84.6934C86.028 14.4966 87.1836 14.1792 88.1602 13.5444C89.1367 12.9097 89.625 11.6035 89.625 9.62598ZM114.578 9.52832C114.578 11.1071 114.211 12.5597 113.479 13.8862C112.755 15.2127 111.672 16.2666 110.232 17.0479C108.792 17.8291 107.038 18.2197 104.971 18.2197C102.879 18.2197 101.109 17.8128 99.6606 16.999C98.2121 16.1852 97.1338 15.1151 96.4258 13.7886C95.7259 12.4621 95.376 11.042 95.376 9.52832C95.376 8.00651 95.7259 6.58643 96.4258 5.26807C97.1257 3.94157 98.1999 2.87549 99.6484 2.06982C101.105 1.25602 102.879 0.849121 104.971 0.849121C106.533 0.849121 107.925 1.08105 109.146 1.54492C110.374 2.00879 111.383 2.63949 112.173 3.43701C112.962 4.2264 113.56 5.15007 113.967 6.20801C114.374 7.25781 114.578 8.36458 114.578 9.52832ZM109.377 9.52832C109.377 8.89355 109.284 8.31576 109.097 7.79492C108.91 7.26595 108.625 6.81022 108.242 6.42773C107.868 6.03711 107.408 5.736 106.863 5.52441C106.318 5.30469 105.687 5.19482 104.971 5.19482C103.604 5.19482 102.529 5.59359 101.748 6.39111C100.967 7.18864 100.576 8.23438 100.576 9.52832C100.576 10.8223 100.967 11.8721 101.748 12.6777C102.537 13.4753 103.612 13.874 104.971 13.874C105.907 13.874 106.704 13.6909 107.363 13.3247C108.022 12.9504 108.523 12.4377 108.865 11.7866C109.207 11.1274 109.377 10.3747 109.377 9.52832Z" fill="#171717"/>
</svg>
