<svg width="44" height="44" viewBox="0 0 44 44" fill="none" xmlns="http://www.w3.org/2000/svg">
<g id="swap-2-fill">
<path id="Vector" d="M31.5467 4.20367L28.9538 6.79639L33.1575 11H23.8337V14.6667H33.1575L28.9538 18.8703L31.5467 21.463L40.1764 12.8334L31.5467 4.20367ZM12.8336 21.0833C17.39 21.0833 21.0837 17.3897 21.0837 12.8334C21.0837 8.27701 17.39 4.58336 12.8336 4.58336C8.27726 4.58336 4.5836 8.27701 4.5836 12.8334C4.5836 17.3897 8.27726 21.0833 12.8336 21.0833ZM10.843 33L15.0466 37.2037L12.4539 39.7964L3.82422 31.1667L12.4539 22.537L15.0466 25.1297L10.843 29.3333H20.167V33H10.843ZM25.667 23.8333C24.6545 23.8333 23.8337 24.6541 23.8337 25.6667V36.6667C23.8337 37.6792 24.6545 38.5 25.667 38.5H36.667C37.6794 38.5 38.5004 37.6792 38.5004 36.6667V25.6667C38.5004 24.6541 37.6794 23.8333 36.667 23.8333H25.667Z" fill="#404040"/>
</g>
</svg>
