<svg width="116" height="20" viewBox="0 0 116 20" fill="none" xmlns="http://www.w3.org/2000/svg">
<path d="M6.86523 3.729L9.84375 12.5547L12.6636 3.729H10.9668V0.604004H17.5952V3.729H15.8984L18.9136 12.5547L21.8188 3.729H19.9634V0.604004H27.3486V3.729H25.3467L20.2441 19.0977H16.8384L13.9453 10.6992L11.1987 19.0977H7.6709L2.42188 3.729H0.46875V0.604004H8.76953V3.729H6.86523ZM36.4077 11.2974V16.0459H38.4829V19H32.3306V17.999C31.1668 18.7965 30.0031 19.1953 28.8394 19.1953C27.4315 19.1953 26.3044 18.8332 25.458 18.1089C24.6117 17.3846 24.1885 16.408 24.1885 15.1792C24.1885 13.8771 24.6605 12.8354 25.6045 12.0542C26.5566 11.2648 27.818 10.8701 29.3887 10.8701C29.9339 10.8701 30.4181 10.9312 30.8413 11.0532C31.2726 11.1672 31.769 11.3665 32.3306 11.6514V10.626C32.3306 9.97493 32.1271 9.4541 31.7202 9.06348C31.3133 8.67285 30.703 8.47754 29.8892 8.47754C29.0021 8.47754 28.2168 8.81934 27.5332 9.50293L24.2373 8.90479C25.2383 6.88656 27.3053 5.87744 30.4385 5.87744C32.5869 5.87744 34.1169 6.32096 35.0283 7.20801C35.9479 8.08691 36.4077 9.45003 36.4077 11.2974ZM29.7549 16.644C30.4873 16.644 31.3459 16.2046 32.3306 15.3257V14.1782C31.4517 13.6086 30.646 13.3237 29.9136 13.3237C29.3276 13.3237 28.88 13.4621 28.5708 13.7388C28.2616 14.0155 28.1069 14.4102 28.1069 14.9229C28.1069 16.0703 28.6562 16.644 29.7549 16.644ZM52.1074 10.8213V16.0459H54.0361V19H48.0059V11.1509C48.0059 10.5487 47.9123 10.1133 47.7251 9.84473C47.5461 9.56803 47.2409 9.42969 46.8096 9.42969C46.0283 9.42969 45.243 9.71045 44.4536 10.272V16.0459H46.4556V19H38.4355V16.0459H40.3887V9.17334H38.4355V6.17041H44.4536V7.37891C45.6743 6.45931 46.9276 5.99951 48.2134 5.99951C49.491 5.99951 50.4595 6.40641 51.1187 7.22021C51.7778 8.02588 52.1074 9.22624 52.1074 10.8213ZM73.6313 3.729H71.2632V0.604004H79.4785V3.729H76.915V19.1221H72.8379L64.8789 5.47461V15.875H67.186V19H59.1294V15.875H61.6074V3.729H59.1294V0.604004H66.8564L73.6313 12.103V3.729ZM90.3442 11.2974V16.0459H92.4194V19H86.2671V17.999C85.1034 18.7965 83.9396 19.1953 82.7759 19.1953C81.368 19.1953 80.2409 18.8332 79.3945 18.1089C78.5482 17.3846 78.125 16.408 78.125 15.1792C78.125 13.8771 78.597 12.8354 79.541 12.0542C80.4932 11.2648 81.7546 10.8701 83.3252 10.8701C83.8704 10.8701 84.3547 10.9312 84.7778 11.0532C85.2091 11.1672 85.7056 11.3665 86.2671 11.6514V10.626C86.2671 9.97493 86.0636 9.4541 85.6567 9.06348C85.2498 8.67285 84.6395 8.47754 83.8257 8.47754C82.9386 8.47754 82.1533 8.81934 81.4697 9.50293L78.1738 8.90479C79.1748 6.88656 81.2419 5.87744 84.375 5.87744C86.5234 5.87744 88.0534 6.32096 88.9648 7.20801C89.8844 8.08691 90.3442 9.45003 90.3442 11.2974ZM83.6914 16.644C84.4238 16.644 85.2824 16.2046 86.2671 15.3257V14.1782C85.3882 13.6086 84.5825 13.3237 83.8501 13.3237C83.2642 13.3237 82.8166 13.4621 82.5073 13.7388C82.1981 14.0155 82.0435 14.4102 82.0435 14.9229C82.0435 16.0703 82.5928 16.644 83.6914 16.644ZM98.6465 2.52051C98.6465 3.17155 98.4227 3.71273 97.9751 4.14404C97.5356 4.56722 97.0107 4.77881 96.4004 4.77881C95.7819 4.77881 95.2489 4.55908 94.8013 4.11963C94.3618 3.67204 94.1421 3.139 94.1421 2.52051C94.1421 1.91016 94.3618 1.38525 94.8013 0.945801C95.2489 0.49821 95.7819 0.274414 96.4004 0.274414C97.0107 0.274414 97.5356 0.49821 97.9751 0.945801C98.4227 1.38525 98.6465 1.91016 98.6465 2.52051ZM100.294 16.0459V19H92.3721V16.0459H94.3252V9.17334H92.3721V6.17041H98.3901V16.0459H100.294ZM113.992 10.8213V16.0459H115.921V19H109.891V11.1509C109.891 10.5487 109.797 10.1133 109.61 9.84473C109.431 9.56803 109.126 9.42969 108.694 9.42969C107.913 9.42969 107.128 9.71045 106.338 10.272V16.0459H108.34V19H100.32V16.0459H102.273V9.17334H100.32V6.17041H106.338V7.37891C107.559 6.45931 108.812 5.99951 110.098 5.99951C111.376 5.99951 112.344 6.40641 113.003 7.22021C113.663 8.02588 113.992 9.22624 113.992 10.8213Z" fill="#171717"/>
</svg>
