<svg width="37" height="36" viewBox="0 0 37 36" fill="none" xmlns="http://www.w3.org/2000/svg">
<path d="M18.5008 9.66666C13.8966 9.66666 10.1675 13.3958 10.1675 18C10.1675 21.6875 12.5529 24.8021 15.8654 25.9062C16.2821 25.9792 16.4383 25.7292 16.4383 25.5104C16.4383 25.3125 16.4279 24.6562 16.4279 23.9583C14.3341 24.3437 13.7925 23.4479 13.6258 22.9792C13.5321 22.7396 13.1258 22 12.7716 21.8021C12.48 21.6458 12.0633 21.2604 12.7612 21.25C13.4175 21.2396 13.8862 21.8542 14.0425 22.1042C14.7925 23.3646 15.9904 23.0104 16.4696 22.7917C16.5425 22.25 16.7612 21.8854 17.0008 21.6771C15.1466 21.4687 13.2091 20.75 13.2091 17.5625C13.2091 16.6562 13.5321 15.9062 14.0633 15.3229C13.98 15.1146 13.6883 14.2604 14.1466 13.1146C14.1466 13.1146 14.8446 12.8958 16.4383 13.9687C17.105 13.7812 17.8133 13.6875 18.5217 13.6875C19.23 13.6875 19.9383 13.7812 20.605 13.9687C22.1987 12.8854 22.8967 13.1146 22.8967 13.1146C23.355 14.2604 23.0633 15.1146 22.98 15.3229C23.5112 15.9062 23.8342 16.6458 23.8342 17.5625C23.8342 20.7604 21.8862 21.4687 20.0321 21.6771C20.3342 21.9375 20.5946 22.4375 20.5946 23.2187C20.5946 24.3333 20.5842 25.2292 20.5842 25.5104C20.5842 25.7292 20.7404 25.9896 21.1571 25.9062C24.5492 24.7611 26.8332 21.5802 26.8342 18C26.8342 13.3958 23.105 9.66666 18.5008 9.66666Z" fill="#4338CA"/>
</svg>
