<svg width="37" height="36" viewBox="0 0 37 36" fill="none" xmlns="http://www.w3.org/2000/svg">
<path d="M19.3567 9.66748C20.2946 9.66903 20.7698 9.67399 21.1805 9.68621L21.3422 9.69151C21.5291 9.69815 21.7134 9.70648 21.9357 9.7169C22.8224 9.75786 23.4273 9.89815 23.9586 10.1044C24.5078 10.3162 24.9717 10.6023 25.4349 11.0655C25.8974 11.5287 26.1836 11.994 26.3961 12.5419C26.6016 13.0724 26.7419 13.678 26.7836 14.5648C26.7935 14.787 26.8015 14.9714 26.8081 15.1582L26.8133 15.32C26.8255 15.7306 26.8311 16.2059 26.8328 17.1437L26.8335 17.7652C26.8336 17.8411 26.8336 17.9194 26.8336 18.0002L26.8335 18.2353L26.833 18.8567C26.8314 19.7946 26.8265 20.2698 26.8142 20.6805L26.8089 20.8422C26.8023 21.0291 26.794 21.2134 26.7836 21.4357C26.7426 22.3224 26.6016 22.9273 26.3961 23.4586C26.1842 24.0078 25.8974 24.4717 25.4349 24.9349C24.9717 25.3974 24.5057 25.6836 23.9586 25.8961C23.4273 26.1016 22.8224 26.2419 21.9357 26.2836C21.7134 26.2935 21.5291 26.3015 21.3422 26.3081L21.1805 26.3133C20.7698 26.3255 20.2946 26.3311 19.3567 26.3328L18.7353 26.3335C18.6594 26.3336 18.5811 26.3336 18.5002 26.3336L18.2652 26.3335L17.6437 26.333C16.7059 26.3314 16.2306 26.3265 15.82 26.3142L15.6582 26.3089C15.4714 26.3023 15.287 26.294 15.0648 26.2836C14.178 26.2426 13.5738 26.1016 13.0419 25.8961C12.4933 25.6842 12.0287 25.3974 11.5655 24.9349C11.1023 24.4717 10.8169 24.0057 10.6044 23.4586C10.3981 22.9273 10.2586 22.3224 10.2169 21.4357C10.207 21.2134 10.1989 21.0291 10.1924 20.8422L10.1871 20.6805C10.1749 20.2698 10.1694 19.7946 10.1676 18.8567L10.1675 17.1437C10.169 16.2059 10.174 15.7306 10.1862 15.32L10.1915 15.1582C10.1981 14.9714 10.2065 14.787 10.2169 14.5648C10.2579 13.6773 10.3981 13.0731 10.6044 12.5419C10.8162 11.9933 11.1023 11.5287 11.5655 11.0655C12.0287 10.6023 12.494 10.3169 13.0419 10.1044C13.5731 9.89815 14.1773 9.75856 15.0648 9.7169C15.287 9.707 15.4714 9.69892 15.6582 9.69238L15.82 9.68714C16.2306 9.67495 16.7059 9.66939 17.6437 9.66759L19.3567 9.66748ZM18.5002 13.8336C16.1978 13.8336 14.3336 15.6998 14.3336 18.0002C14.3336 20.3027 16.1998 22.1669 18.5002 22.1669C20.8027 22.1669 22.6669 20.3006 22.6669 18.0002C22.6669 15.6978 20.8006 13.8336 18.5002 13.8336ZM18.5002 15.5002C19.881 15.5002 21.0002 16.6191 21.0002 18.0002C21.0002 19.381 19.8813 20.5002 18.5002 20.5002C17.1195 20.5002 16.0002 19.3813 16.0002 18.0002C16.0002 16.6195 17.1191 15.5002 18.5002 15.5002ZM22.8752 12.5836C22.3008 12.5836 21.8336 13.0501 21.8336 13.6245C21.8336 14.1989 22.3002 14.6662 22.8752 14.6662C23.4496 14.6662 23.9169 14.1996 23.9169 13.6245C23.9169 13.0501 23.4488 12.5828 22.8752 12.5836Z" fill="#4338CA"/>
</svg>
