<svg width="37" height="36" viewBox="0 0 37 36" fill="none" xmlns="http://www.w3.org/2000/svg">
<path d="M23.7801 23.2825H21.5588V19.8018C21.5588 18.9718 21.542 17.9037 20.4013 17.9037C19.2432 17.9037 19.0663 18.8069 19.0663 19.7406V23.2825H16.8451V16.125H18.9788V17.1006H19.0076C19.3057 16.5381 20.0307 15.9444 21.1138 15.9444C23.3645 15.9444 23.7807 17.4257 23.7807 19.3538L23.7801 23.2825ZM14.3364 15.1456C13.6214 15.1456 13.047 14.5669 13.047 13.855C13.047 13.1437 13.622 12.5656 14.3364 12.5656C15.0489 12.5656 15.6264 13.1437 15.6264 13.855C15.6264 14.5669 15.0482 15.1456 14.3364 15.1456ZM15.4501 23.2825H13.2226V16.125H15.4501V23.2825ZM24.8913 10.5H12.1076C11.4957 10.5 11.0007 10.9838 11.0007 11.5806V24.4194C11.0007 25.0168 11.4957 25.5 12.1076 25.5H24.8895C25.5007 25.5 26.0007 25.0168 26.0007 24.4194V11.5806C26.0007 10.9838 25.5007 10.5 24.8895 10.5H24.8913Z" fill="#4338CA"/>
</svg>
